<?xml version="1.0" encoding="UTF-8"?>
<svg xmlns="http://www.w3.org/2000/svg" xmlns:xlink="http://www.w3.org/1999/xlink" width="212px" height="230px" viewBox="0 0 212 229" version="1.1">
<g id="surface1">
<path style="fill:none;stroke-width:5;stroke-linecap:round;stroke-linejoin:round;stroke:rgb(0%,0%,0%);stroke-opacity:1;stroke-miterlimit:10;" d="M 868.60308 1078.844369 L 782.36017 1077.674758 " transform="matrix(0.113732,0,0,-0.113553,0.0634453,228.388437)"/>
<path style="fill:none;stroke-width:5;stroke-linecap:round;stroke-linejoin:round;stroke:rgb(0%,0%,0%);stroke-opacity:1;stroke-miterlimit:10;" d="M 782.36017 1077.674758 L 752.376075 1969.847723 " transform="matrix(0.113732,0,0,-0.113553,0.0634453,228.388437)"/>
<path style="fill:none;stroke-width:5;stroke-linecap:round;stroke-linejoin:round;stroke:rgb(0%,0%,0%);stroke-opacity:1;stroke-miterlimit:10;" d="M 1686.622753 782.038187 L 782.36017 1077.674758 " transform="matrix(0.113732,0,0,-0.113553,0.0634453,228.388437)"/>
<path style="fill:none;stroke-width:5;stroke-linecap:round;stroke-linejoin:round;stroke:rgb(0%,0%,0%);stroke-opacity:1;stroke-miterlimit:10;" d="M 782.36017 1077.674758 L 201.293838 483.649588 " transform="matrix(0.113732,0,0,-0.113553,0.0634453,228.388437)"/>
<path style="fill:none;stroke-width:5;stroke-linecap:round;stroke-linejoin:round;stroke:rgb(0%,0%,0%);stroke-opacity:1;stroke-miterlimit:10;" d="M 1352.504461 922.116394 L 1686.622753 782.038187 " transform="matrix(0.113732,0,0,-0.113553,0.0634453,228.388437)"/>
<path style="fill:none;stroke-width:5;stroke-linecap:round;stroke-linejoin:round;stroke:rgb(0%,0%,0%);stroke-opacity:1;stroke-miterlimit:10;" d="M 1809.581582 1723.266045 L 1686.622753 782.038187 " transform="matrix(0.113732,0,0,-0.113553,0.0634453,228.388437)"/>
<path style="fill:none;stroke-width:5;stroke-linecap:round;stroke-linejoin:round;stroke:rgb(0%,0%,0%);stroke-opacity:1;stroke-miterlimit:10;" d="M 1232.224623 55.365284 L 1686.622753 782.038187 " transform="matrix(0.113732,0,0,-0.113553,0.0634453,228.388437)"/>
<path style="fill:none;stroke-width:5;stroke-linecap:round;stroke-linejoin:round;stroke:rgb(0%,0%,0%);stroke-opacity:1;stroke-miterlimit:10;" d="M 868.60308 1078.844369 L 860.01657 1540.256206 " transform="matrix(0.113732,0,0,-0.113553,0.0634453,228.388437)"/>
<path style="fill:none;stroke-width:5;stroke-linecap:round;stroke-linejoin:round;stroke:rgb(0%,0%,0%);stroke-opacity:1;stroke-miterlimit:10;" d="M 1352.504461 922.116394 L 868.60308 1078.844369 " transform="matrix(0.113732,0,0,-0.113553,0.0634453,228.388437)"/>
<path style="fill:none;stroke-width:5;stroke-linecap:round;stroke-linejoin:round;stroke:rgb(0%,0%,0%);stroke-opacity:1;stroke-miterlimit:10;" d="M 868.60308 1078.844369 L 581.195404 776.499731 " transform="matrix(0.113732,0,0,-0.113553,0.0634453,228.388437)"/>
<path style="fill:none;stroke-width:5;stroke-linecap:round;stroke-linejoin:round;stroke:rgb(0%,0%,0%);stroke-opacity:1;stroke-miterlimit:10;" d="M 860.01657 1540.256206 L 752.376075 1969.847723 " transform="matrix(0.113732,0,0,-0.113553,0.0634453,228.388437)"/>
<path style="fill:none;stroke-width:5;stroke-linecap:round;stroke-linejoin:round;stroke:rgb(0%,0%,0%);stroke-opacity:1;stroke-miterlimit:10;" d="M 752.376075 1969.847723 L 1809.581582 1723.266045 " transform="matrix(0.113732,0,0,-0.113553,0.0634453,228.388437)"/>
<path style="fill:none;stroke-width:5;stroke-linecap:round;stroke-linejoin:round;stroke:rgb(0%,0%,0%);stroke-opacity:1;stroke-miterlimit:10;" d="M 752.376075 1969.847723 L 53.468475 1466.845868 " transform="matrix(0.113732,0,0,-0.113553,0.0634453,228.388437)"/>
<path style="fill:none;stroke-width:5;stroke-linecap:round;stroke-linejoin:round;stroke:rgb(0%,0%,0%);stroke-opacity:1;stroke-miterlimit:10;" d="M 1384.514971 1395.637153 L 1352.504461 922.116394 " transform="matrix(0.113732,0,0,-0.113553,0.0634453,228.388437)"/>
<path style="fill:none;stroke-width:5;stroke-linecap:round;stroke-linejoin:round;stroke:rgb(0%,0%,0%);stroke-opacity:1;stroke-miterlimit:10;" d="M 1099.065019 586.609823 L 1352.504461 922.116394 " transform="matrix(0.113732,0,0,-0.113553,0.0634453,228.388437)"/>
<path style="fill:none;stroke-width:5;stroke-linecap:round;stroke-linejoin:round;stroke:rgb(0%,0%,0%);stroke-opacity:1;stroke-miterlimit:10;" d="M 581.195404 776.499731 L 201.293838 483.649588 " transform="matrix(0.113732,0,0,-0.113553,0.0634453,228.388437)"/>
<path style="fill:none;stroke-width:5;stroke-linecap:round;stroke-linejoin:round;stroke:rgb(0%,0%,0%);stroke-opacity:1;stroke-miterlimit:10;" d="M 201.293838 483.649588 L 53.468475 1466.845868 " transform="matrix(0.113732,0,0,-0.113553,0.0634453,228.388437)"/>
<path style="fill:none;stroke-width:5;stroke-linecap:round;stroke-linejoin:round;stroke:rgb(0%,0%,0%);stroke-opacity:1;stroke-miterlimit:10;" d="M 201.293838 483.649588 L 1232.224623 55.365284 " transform="matrix(0.113732,0,0,-0.113553,0.0634453,228.388437)"/>
<path style="fill:none;stroke-width:5;stroke-linecap:round;stroke-linejoin:round;stroke:rgb(0%,0%,0%);stroke-opacity:1;stroke-miterlimit:10;" d="M 860.01657 1540.256206 L 1384.514971 1395.637153 " transform="matrix(0.113732,0,0,-0.113553,0.0634453,228.388437)"/>
<path style="fill:none;stroke-width:5;stroke-linecap:round;stroke-linejoin:round;stroke:rgb(0%,0%,0%);stroke-opacity:1;stroke-miterlimit:10;" d="M 860.01657 1540.256206 L 546.162442 1260.237392 " transform="matrix(0.113732,0,0,-0.113553,0.0634453,228.388437)"/>
<path style="fill:none;stroke-width:5;stroke-linecap:round;stroke-linejoin:round;stroke:rgb(0%,0%,0%);stroke-opacity:1;stroke-miterlimit:10;" d="M 581.195404 776.499731 L 546.162442 1260.237392 " transform="matrix(0.113732,0,0,-0.113553,0.0634453,228.388437)"/>
<path style="fill:none;stroke-width:5;stroke-linecap:round;stroke-linejoin:round;stroke:rgb(0%,0%,0%);stroke-opacity:1;stroke-miterlimit:10;" d="M 581.195404 776.499731 L 1099.065019 586.609823 " transform="matrix(0.113732,0,0,-0.113553,0.0634453,228.388437)"/>
<path style="fill:none;stroke-width:5;stroke-linecap:round;stroke-linejoin:round;stroke:rgb(0%,0%,0%);stroke-opacity:1;stroke-miterlimit:10;" d="M 1384.514971 1395.637153 L 1809.581582 1723.266045 " transform="matrix(0.113732,0,0,-0.113553,0.0634453,228.388437)"/>
<path style="fill:none;stroke-width:5;stroke-linecap:round;stroke-linejoin:round;stroke:rgb(0%,0%,0%);stroke-opacity:1;stroke-miterlimit:10;" d="M 1384.514971 1395.637153 L 1110.708328 1082.112402 " transform="matrix(0.113732,0,0,-0.113553,0.0634453,228.388437)"/>
<path style="fill:none;stroke-width:5;stroke-linecap:round;stroke-linejoin:round;stroke:rgb(0%,0%,0%);stroke-opacity:1;stroke-miterlimit:10;" d="M 1099.065019 586.609823 L 1232.224623 55.365284 " transform="matrix(0.113732,0,0,-0.113553,0.0634453,228.388437)"/>
<path style="fill:none;stroke-width:5;stroke-linecap:round;stroke-linejoin:round;stroke:rgb(0%,0%,0%);stroke-opacity:1;stroke-miterlimit:10;" d="M 1110.708328 1082.112402 L 1099.065019 586.609823 " transform="matrix(0.113732,0,0,-0.113553,0.0634453,228.388437)"/>
<path style="fill:none;stroke-width:5;stroke-linecap:round;stroke-linejoin:round;stroke:rgb(0%,0%,0%);stroke-opacity:1;stroke-miterlimit:10;" d="M 1809.581582 1723.266045 L 1288.243017 1084.486026 " transform="matrix(0.113732,0,0,-0.113553,0.0634453,228.388437)"/>
<path style="fill:none;stroke-width:5;stroke-linecap:round;stroke-linejoin:round;stroke:rgb(0%,0%,0%);stroke-opacity:1;stroke-miterlimit:10;" d="M 546.162442 1260.237392 L 53.468475 1466.845868 " transform="matrix(0.113732,0,0,-0.113553,0.0634453,228.388437)"/>
<path style="fill:none;stroke-width:5;stroke-linecap:round;stroke-linejoin:round;stroke:rgb(0%,0%,0%);stroke-opacity:1;stroke-miterlimit:10;" d="M 546.162442 1260.237392 L 1110.708328 1082.112402 " transform="matrix(0.113732,0,0,-0.113553,0.0634453,228.388437)"/>
<path style="fill:none;stroke-width:5;stroke-linecap:round;stroke-linejoin:round;stroke:rgb(0%,0%,0%);stroke-opacity:1;stroke-miterlimit:10;" d="M 1288.243017 1084.486026 L 1232.224623 55.365284 " transform="matrix(0.113732,0,0,-0.113553,0.0634453,228.388437)"/>
<path style="fill:none;stroke-width:5;stroke-linecap:round;stroke-linejoin:round;stroke:rgb(0%,0%,0%);stroke-opacity:1;stroke-miterlimit:10;" d="M 1110.708328 1082.112402 L 1288.243017 1084.486026 " transform="matrix(0.113732,0,0,-0.113553,0.0634453,228.388437)"/>
<path style="fill:none;stroke-width:5;stroke-linecap:round;stroke-linejoin:round;stroke:rgb(0%,0%,0%);stroke-opacity:1;stroke-miterlimit:10;" d="M 53.468475 1466.845868 L 1288.243017 1084.486026 " transform="matrix(0.113732,0,0,-0.113553,0.0634453,228.388437)"/>
</g>
</svg>
